<svg display="none" xmlns="http://www.w3.org/2000/svg">
    <symbol id="camera" width="24" height="24" viewBox="0 0 24 24">
        <g>
            <path fill-rule="evenodd" clip-rule="evenodd" d="M8.16795 2.4453C8.35342 2.1671 8.66565 2 9 2H15C15.3344 2 15.6466 2.1671 15.8321 2.4453L17.5352 5H21C21.7957 5 22.5587 5.31607 23.1213 5.87868C23.6839 6.44129 24 7.20435 24 8V19C24 19.7957 23.6839 20.5587 23.1213 21.1213C22.5587 21.6839 21.7957 22 21 22H3C2.20435 22 1.44129 21.6839 0.87868 21.1213C0.316071 20.5587 0 19.7957 0 19V8C0 7.20435 0.316071 6.44129 0.87868 5.87868C1.44129 5.31607 2.20435 5 3 5H6.46482L8.16795 2.4453ZM9.53518 4L7.83205 6.5547C7.64658 6.8329 7.33435 7 7 7H3C2.73478 7 2.48043 7.10536 2.29289 7.29289C2.10536 7.48043 2 7.73478 2 8V19C2 19.2652 2.10536 19.5196 2.29289 19.7071C2.48043 19.8946 2.73478 20 3 20H21C21.2652 20 21.5196 19.8946 21.7071 19.7071C21.8946 19.5196 22 19.2652 22 19V8C22 7.73478 21.8946 7.48043 21.7071 7.29289C21.5196 7.10536 21.2652 7 21 7H17C16.6656 7 16.3534 6.8329 16.1679 6.5547L14.4648 4H9.53518Z"/>
            <path fill-rule="evenodd" clip-rule="evenodd" d="M12 10C10.3431 10 9 11.3431 9 13C9 14.6569 10.3431 16 12 16C13.6569 16 15 14.6569 15 13C15 11.3431 13.6569 10 12 10ZM7 13C7 10.2386 9.23858 8 12 8C14.7614 8 17 10.2386 17 13C17 15.7614 14.7614 18 12 18C9.23858 18 7 15.7614 7 13Z"/>
        </g>
    </symbol>

    <symbol id="document" width="24" height="24" viewBox="0 0 24 24">
        <g>
            <path fill-rule="evenodd" clip-rule="evenodd" d="M3.87868 1.87868C4.44129 1.31607 5.20435 1 6 1H14C14.2652 1 14.5196 1.10536 14.7071 1.29289L20.7071 7.29289C20.8946 7.48043 21 7.73478 21 8V20C21 20.7957 20.6839 21.5587 20.1213 22.1213C19.5587 22.6839 18.7957 23 18 23H6C5.20435 23 4.44129 22.6839 3.87868 22.1213C3.31607 21.5587 3 20.7957 3 20V4C3 3.20435 3.31607 2.44129 3.87868 1.87868ZM6 3C5.73478 3 5.48043 3.10536 5.29289 3.29289C5.10536 3.48043 5 3.73478 5 4V20C5 20.2652 5.10536 20.5196 5.29289 20.7071C5.48043 20.8946 5.73478 21 6 21H18C18.2652 21 18.5196 20.8946 18.7071 20.7071C18.8946 20.5196 19 20.2652 19 20V8.41421L13.5858 3H6Z"/>
            <path fill-rule="evenodd" clip-rule="evenodd" d="M14 1C14.5523 1 15 1.44772 15 2V7H20C20.5523 7 21 7.44772 21 8C21 8.55228 20.5523 9 20 9H14C13.4477 9 13 8.55228 13 8V2C13 1.44772 13.4477 1 14 1Z"/>
            <path fill-rule="evenodd" clip-rule="evenodd" d="M7 13C7 12.4477 7.44772 12 8 12H16C16.5523 12 17 12.4477 17 13C17 13.5523 16.5523 14 16 14H8C7.44772 14 7 13.5523 7 13Z"/>
            <path fill-rule="evenodd" clip-rule="evenodd" d="M7 17C7 16.4477 7.44772 16 8 16H16C16.5523 16 17 16.4477 17 17C17 17.5523 16.5523 18 16 18H8C7.44772 18 7 17.5523 7 17Z"/>
            <path fill-rule="evenodd" clip-rule="evenodd" d="M7 9C7 8.44772 7.44772 8 8 8H10C10.5523 8 11 8.44772 11 9C11 9.55228 10.5523 10 10 10H8C7.44772 10 7 9.55228 7 9Z"/>
        </g>
    </symbol>

    <symbol id="monitor" width="24" height="24" viewBox="0 0 24 24">
        <g>
            <path fill-rule="evenodd" clip-rule="evenodd" d="M4 4C3.44772 4 3 4.44772 3 5V15C3 15.5523 3.44772 16 4 16H20C20.5523 16 21 15.5523 21 15V5C21 4.44772 20.5523 4 20 4H4ZM1 5C1 3.34315 2.34315 2 4 2H20C21.6569 2 23 3.34315 23 5V15C23 16.6569 21.6569 18 20 18H4C2.34315 18 1 16.6569 1 15V5Z"/>
            <path fill-rule="evenodd" clip-rule="evenodd" d="M7 21C7 20.4477 7.44772 20 8 20H16C16.5523 20 17 20.4477 17 21C17 21.5523 16.5523 22 16 22H8C7.44772 22 7 21.5523 7 21Z"/>
            <path fill-rule="evenodd" clip-rule="evenodd" d="M12 16C12.5523 16 13 16.4477 13 17V21C13 21.5523 12.5523 22 12 22C11.4477 22 11 21.5523 11 21V17C11 16.4477 11.4477 16 12 16Z"/>
        </g>
    </symbol>

    <symbol id="edit-2" width="24" height="24" viewBox="0 0 24 24">
        <g>
            <path fill-rule="evenodd" clip-rule="evenodd" d="M19 3.17163C18.7599 3.17163 18.5221 3.21892 18.3003 3.31081C18.0784 3.4027 17.8769 3.53738 17.7071 3.70716L4.39488 17.0194L3.42521 20.5748L6.98067 19.6052L20.2929 6.29295C20.4627 6.12317 20.5974 5.9216 20.6892 5.69977C20.7811 5.47793 20.8284 5.24017 20.8284 5.00006C20.8284 4.75994 20.7811 4.52218 20.6892 4.30035C20.5974 4.07852 20.4627 3.87695 20.2929 3.70716C20.1231 3.53738 19.9215 3.4027 19.6997 3.31081C19.4779 3.21892 19.2401 3.17163 19 3.17163ZM17.5349 1.46305C17.9994 1.27066 18.4972 1.17163 19 1.17163C19.5027 1.17163 20.0006 1.27066 20.4651 1.46305C20.9296 1.65545 21.3516 1.93745 21.7071 2.29295C22.0626 2.64845 22.3446 3.07049 22.537 3.53498C22.7294 3.99947 22.8284 4.4973 22.8284 5.00006C22.8284 5.50281 22.7294 6.00064 22.537 6.46513C22.3446 6.92962 22.0626 7.35166 21.7071 7.70716L8.2071 21.2072C8.08404 21.3302 7.93101 21.419 7.76311 21.4648L2.26311 22.9648C1.9169 23.0592 1.54664 22.9609 1.29289 22.7072C1.03914 22.4534 0.940807 22.0832 1.03523 21.7369L2.53523 16.2369C2.58102 16.069 2.66983 15.916 2.79289 15.793L16.2929 2.29295C16.6484 1.93745 17.0704 1.65545 17.5349 1.46305Z"/>
        </g>
    </symbol>

    <symbol id="image" width="24" height="24" viewBox="0 0 24 24">
        <g>
            <path fill-rule="evenodd" clip-rule="evenodd" d="M5 4C4.44772 4 4 4.44772 4 5V19C4 19.5523 4.44772 20 5 20H19C19.5523 20 20 19.5523 20 19V5C20 4.44772 19.5523 4 19 4H5ZM2 5C2 3.34315 3.34315 2 5 2H19C20.6569 2 22 3.34315 22 5V19C22 20.6569 20.6569 22 19 22H5C3.34315 22 2 20.6569 2 19V5Z"/>
            <path fill-rule="evenodd" clip-rule="evenodd" d="M8.5 8C8.22386 8 8 8.22386 8 8.5C8 8.77614 8.22386 9 8.5 9C8.77614 9 9 8.77614 9 8.5C9 8.22386 8.77614 8 8.5 8ZM6 8.5C6 7.11929 7.11929 6 8.5 6C9.88071 6 11 7.11929 11 8.5C11 9.88071 9.88071 11 8.5 11C7.11929 11 6 9.88071 6 8.5Z"/>
            <path fill-rule="evenodd" clip-rule="evenodd" d="M15.2929 9.29289C15.6834 8.90237 16.3166 8.90237 16.7071 9.29289L21.7071 14.2929C22.0976 14.6834 22.0976 15.3166 21.7071 15.7071C21.3166 16.0976 20.6834 16.0976 20.2929 15.7071L16 11.4142L5.70711 21.7071C5.31658 22.0976 4.68342 22.0976 4.29289 21.7071C3.90237 21.3166 3.90237 20.6834 4.29289 20.2929L15.2929 9.29289Z"/>
        </g>
    </symbol>
</svg>